<svg width="21" height="21" viewBox="0 0 21 21" fill="none" xmlns="http://www.w3.org/2000/svg">
<rect width="21" height="21" fill="#D9D9D9" fill-opacity="0.01"/>
<path d="M5.134 8V5.683L4.056 2.33H5.239L5.778 4.122L6.261 2.33H7.395L6.338 5.683V8H5.134ZM9.04345 8.07C8.75411 8.07 8.50211 8.021 8.28745 7.923C8.07745 7.825 7.91411 7.678 7.79745 7.482C7.68545 7.286 7.62945 7.041 7.62945 6.747V5.207C7.62945 4.913 7.68545 4.668 7.79745 4.472C7.91411 4.276 8.07745 4.129 8.28745 4.031C8.50211 3.933 8.75411 3.884 9.04345 3.884C9.33278 3.884 9.58245 3.933 9.79245 4.031C10.0071 4.129 10.1728 4.276 10.2894 4.472C10.4061 4.668 10.4644 4.913 10.4644 5.207V6.747C10.4644 7.041 10.4061 7.286 10.2894 7.482C10.1728 7.678 10.0071 7.825 9.79245 7.923C9.58245 8.021 9.33278 8.07 9.04345 8.07ZM9.05045 7.314C9.12511 7.314 9.18345 7.29533 9.22545 7.258C9.26745 7.216 9.29545 7.16 9.30945 7.09C9.32811 7.01533 9.33745 6.92667 9.33745 6.824V5.13C9.33745 5.02733 9.32811 4.941 9.30945 4.871C9.29545 4.79633 9.26745 4.74033 9.22545 4.703C9.18345 4.661 9.12511 4.64 9.05045 4.64C8.97578 4.64 8.91745 4.661 8.87545 4.703C8.83345 4.74033 8.80311 4.79633 8.78445 4.871C8.76578 4.941 8.75645 5.02733 8.75645 5.13V6.824C8.75645 6.92667 8.76578 7.01533 8.78445 7.09C8.80311 7.16 8.83345 7.216 8.87545 7.258C8.91745 7.29533 8.97578 7.314 9.05045 7.314ZM11.8112 8.07C11.6479 8.07 11.5079 8.03033 11.3912 7.951C11.2792 7.867 11.1952 7.75267 11.1392 7.608C11.0832 7.46333 11.0552 7.30233 11.0552 7.125V3.954H12.1962V6.992C12.1962 7.09 12.2126 7.167 12.2452 7.223C12.2826 7.27433 12.3456 7.3 12.4342 7.3C12.4856 7.3 12.5392 7.28833 12.5952 7.265C12.6512 7.237 12.7096 7.20667 12.7702 7.174V3.954H13.9042V8H12.7702V7.629C12.6256 7.76433 12.4716 7.87167 12.3082 7.951C12.1496 8.03033 11.9839 8.07 11.8112 8.07Z" fill="white"/>
<path d="M2.01123 12.1267C1.95597 10.1227 2.5549 9.51908 5.01123 9.56057" stroke="white" stroke-linejoin="round"/>
<path d="M4.50977 9.48755C4.39059 9.48755 4.27533 9.53012 4.18476 9.60759L2.18476 11.3183C2.0737 11.4133 2.00977 11.5522 2.00977 11.6983V16.8305C2.00977 16.9767 2.0737 17.1155 2.18476 17.2105L4.18476 18.9212C4.27533 18.9987 4.39059 19.0413 4.50977 19.0413H15.5098C15.6289 19.0413 15.7442 18.9987 15.8348 18.9212L17.8348 17.2105C17.9458 17.1155 18.0098 16.9767 18.0098 16.8305V11.6983C18.0098 11.5522 17.9458 11.4133 17.8348 11.3183L15.8348 9.60759C15.7442 9.53012 15.6289 9.48755 15.5098 9.48755H4.50977Z" fill="white" stroke="white" stroke-linejoin="round"/>
<path d="M14.0098 18.9689C17.3029 19.1435 18.2003 18.4133 18.0098 15.5474" stroke="white" stroke-linejoin="round"/>
<path d="M15.0098 9.55983C17.4399 9.48476 18.1597 10.0872 18.0098 12.1259" stroke="white" stroke-linejoin="round"/>
<path d="M2.01378 15.5474C1.87043 18.4425 2.82084 19.1695 6.01378 18.9689" stroke="white" stroke-linejoin="round"/>
<path d="M3.931 17.5537V12.8147H3.077V11.8837H6.038V12.8147H5.191V17.5537H3.931ZM7.18819 17.6237C7.02485 17.6237 6.88485 17.584 6.76819 17.5047C6.65619 17.4207 6.57219 17.3064 6.51619 17.1617C6.46019 17.017 6.43219 16.856 6.43219 16.6787V13.5077H7.57319V16.5457C7.57319 16.6437 7.58952 16.7207 7.62219 16.7767C7.65952 16.828 7.72252 16.8537 7.81119 16.8537C7.86252 16.8537 7.91619 16.842 7.97219 16.8187C8.02819 16.7907 8.08652 16.7604 8.14719 16.7277V13.5077H9.28119V17.5537H8.14719V17.1827C8.00252 17.318 7.84852 17.4254 7.68519 17.5047C7.52652 17.584 7.36085 17.6237 7.18819 17.6237ZM12.0105 17.6237C11.8612 17.6237 11.7119 17.591 11.5625 17.5257C11.4179 17.4557 11.2779 17.3624 11.1425 17.2457V17.5537H10.0015V11.8837H11.1425V13.8017C11.2825 13.6804 11.4272 13.5894 11.5765 13.5287C11.7305 13.468 11.8799 13.4377 12.0245 13.4377C12.1785 13.4377 12.3092 13.468 12.4165 13.5287C12.5285 13.5894 12.6195 13.6757 12.6895 13.7877C12.7595 13.895 12.8109 14.021 12.8435 14.1657C12.8762 14.3104 12.8925 14.4644 12.8925 14.6277V16.3707C12.8925 16.6227 12.8575 16.842 12.7875 17.0287C12.7222 17.2154 12.6242 17.3624 12.4935 17.4697C12.3629 17.5724 12.2019 17.6237 12.0105 17.6237ZM11.4575 16.8887C11.5322 16.8887 11.5905 16.8677 11.6325 16.8257C11.6745 16.7837 11.7049 16.73 11.7235 16.6647C11.7422 16.5947 11.7515 16.5177 11.7515 16.4337V14.5437C11.7515 14.4644 11.7422 14.3944 11.7235 14.3337C11.7049 14.2684 11.6745 14.217 11.6325 14.1797C11.5952 14.1424 11.5415 14.1237 11.4715 14.1237C11.4109 14.1237 11.3525 14.1377 11.2965 14.1657C11.2452 14.189 11.1939 14.2194 11.1425 14.2567V16.7767C11.1939 16.8094 11.2452 16.8374 11.2965 16.8607C11.3525 16.8794 11.4062 16.8887 11.4575 16.8887ZM14.8655 17.6237C14.5715 17.6237 14.3195 17.5724 14.1095 17.4697C13.8995 17.3624 13.7385 17.2084 13.6265 17.0077C13.5145 16.8024 13.4585 16.5574 13.4585 16.2727V14.7887C13.4585 14.4994 13.5145 14.2544 13.6265 14.0537C13.7385 13.853 13.8995 13.7014 14.1095 13.5987C14.3242 13.4914 14.5762 13.4377 14.8655 13.4377C15.1642 13.4377 15.4115 13.489 15.6075 13.5917C15.8082 13.6944 15.9575 13.846 16.0555 14.0467C16.1582 14.2474 16.2095 14.4947 16.2095 14.7887V15.6007H14.5855V16.3777C14.5855 16.4804 14.5972 16.5644 14.6205 16.6297C14.6439 16.695 14.6765 16.7417 14.7185 16.7697C14.7605 16.7977 14.8095 16.8117 14.8655 16.8117C14.9215 16.8117 14.9705 16.8 15.0125 16.7767C15.0592 16.7487 15.0942 16.7067 15.1175 16.6507C15.1455 16.5947 15.1595 16.5177 15.1595 16.4197V15.9927H16.2095V16.3847C16.2095 16.7954 16.0905 17.1057 15.8525 17.3157C15.6145 17.521 15.2855 17.6237 14.8655 17.6237ZM14.5855 15.0687H15.1595V14.6627C15.1595 14.5554 15.1455 14.4714 15.1175 14.4107C15.0942 14.35 15.0592 14.308 15.0125 14.2847C14.9705 14.2614 14.9192 14.2497 14.8585 14.2497C14.8025 14.2497 14.7535 14.2637 14.7115 14.2917C14.6742 14.3197 14.6439 14.3687 14.6205 14.4387C14.5972 14.504 14.5855 14.5997 14.5855 14.7257V15.0687Z" fill="black"/>
</svg>
